<svg width="1090" height="385" viewBox="0 0 1090 385" fill="none" xmlns="http://www.w3.org/2000/svg">
<path d="M849.266 371.508V366.621H856.443C857.382 366.621 858.234 366.43 858.997 366.049C859.76 365.667 860.362 365.124 860.802 364.419C861.242 363.686 861.462 362.805 861.462 361.778C861.462 360.78 861.242 359.914 860.802 359.18C860.362 358.446 859.76 357.888 858.997 357.507C858.234 357.125 857.382 356.934 856.443 356.934H849.266V352.047H857.059C859.026 352.047 860.787 352.443 862.343 353.236C863.928 354.028 865.176 355.158 866.086 356.626C866.996 358.064 867.451 359.782 867.451 361.778C867.451 363.774 866.996 365.505 866.086 366.973C865.176 368.411 863.928 369.527 862.343 370.319C860.787 371.112 859.026 371.508 857.059 371.508H849.266ZM844.863 383V352.047H850.851V383H844.863ZM886.481 383.484C884.221 383.484 882.107 383.073 880.14 382.251C878.203 381.43 876.501 380.3 875.033 378.861C873.595 377.394 872.465 375.691 871.643 373.754C870.821 371.787 870.41 369.688 870.41 367.457C870.41 365.227 870.806 363.157 871.599 361.249C872.421 359.312 873.551 357.624 874.989 356.186C876.457 354.718 878.159 353.588 880.096 352.796C882.034 351.974 884.132 351.563 886.393 351.563C888.682 351.563 890.796 351.974 892.733 352.796C894.67 353.588 896.358 354.718 897.796 356.186C899.264 357.624 900.409 359.312 901.231 361.249C902.053 363.187 902.464 365.271 902.464 367.501C902.464 369.732 902.053 371.816 901.231 373.754C900.409 375.691 899.264 377.394 897.796 378.861C896.358 380.3 894.67 381.43 892.733 382.251C890.825 383.073 888.741 383.484 886.481 383.484ZM886.393 377.893C888.389 377.893 890.121 377.452 891.588 376.572C893.056 375.691 894.201 374.473 895.023 372.917C895.874 371.361 896.299 369.542 896.299 367.457C896.299 365.931 896.065 364.537 895.595 363.275C895.125 362.012 894.45 360.926 893.57 360.016C892.689 359.077 891.647 358.358 890.443 357.859C889.24 357.36 887.89 357.11 886.393 357.11C884.455 357.11 882.738 357.551 881.241 358.431C879.773 359.283 878.614 360.486 877.763 362.042C876.941 363.598 876.53 365.403 876.53 367.457C876.53 369.013 876.765 370.437 877.234 371.728C877.733 373.02 878.409 374.121 879.26 375.031C880.14 375.941 881.182 376.645 882.386 377.144C883.619 377.643 884.954 377.893 886.393 377.893ZM911.613 370.055V365.388H918.79C920.258 365.388 921.388 365.021 922.18 364.287C923.002 363.524 923.413 362.482 923.413 361.161C923.413 359.958 923.002 358.96 922.18 358.167C921.388 357.345 920.258 356.934 918.79 356.934H911.613V352.047H919.318C921.314 352.047 923.061 352.443 924.558 353.236C926.084 353.999 927.258 355.056 928.08 356.406C928.932 357.756 929.357 359.312 929.357 361.073C929.357 362.893 928.932 364.478 928.08 365.828C927.258 367.149 926.084 368.191 924.558 368.954C923.032 369.688 921.256 370.055 919.23 370.055H911.613ZM907.21 383V352.047H913.198V383H907.21ZM924.118 383L913.903 369.615L919.406 367.898L931.383 383H924.118ZM941.143 383V352.707H947.175V383H941.143ZM931.28 357.375V352.047H957.038V357.375H931.28ZM961.173 383V352.047H967.161V383H961.173ZM965.576 370.319V364.992H981.162V370.319H965.576ZM965.576 357.331V352.047H981.911V357.331H965.576ZM1000.73 383.484C998.466 383.484 996.352 383.073 994.386 382.251C992.449 381.43 990.746 380.3 989.278 378.861C987.84 377.394 986.71 375.691 985.888 373.754C985.066 371.787 984.655 369.688 984.655 367.457C984.655 365.227 985.052 363.157 985.844 361.249C986.666 359.312 987.796 357.624 989.234 356.186C990.702 354.718 992.404 353.588 994.342 352.796C996.279 351.974 998.378 351.563 1000.64 351.563C1002.93 351.563 1005.04 351.974 1006.98 352.796C1008.92 353.588 1010.6 354.718 1012.04 356.186C1013.51 357.624 1014.65 359.312 1015.48 361.249C1016.3 363.187 1016.71 365.271 1016.71 367.501C1016.71 369.732 1016.3 371.816 1015.48 373.754C1014.65 375.691 1013.51 377.394 1012.04 378.861C1010.6 380.3 1008.92 381.43 1006.98 382.251C1005.07 383.073 1002.99 383.484 1000.73 383.484ZM1000.64 377.893C1002.63 377.893 1004.37 377.452 1005.83 376.572C1007.3 375.691 1008.45 374.473 1009.27 372.917C1010.12 371.361 1010.54 369.542 1010.54 367.457C1010.54 365.931 1010.31 364.537 1009.84 363.275C1009.37 362.012 1008.7 360.926 1007.81 360.016C1006.93 359.077 1005.89 358.358 1004.69 357.859C1003.49 357.36 1002.14 357.11 1000.64 357.11C998.701 357.11 996.984 357.551 995.487 358.431C994.019 359.283 992.859 360.486 992.008 362.042C991.186 363.598 990.775 365.403 990.775 367.457C990.775 369.013 991.01 370.437 991.48 371.728C991.979 373.02 992.654 374.121 993.505 375.031C994.386 375.941 995.428 376.645 996.631 377.144C997.864 377.643 999.2 377.893 1000.64 377.893ZM1021.46 383V352.047H1027.44V383H1021.46ZM1025.86 383V377.672H1041.62V383H1025.86ZM1045.92 383V352.047H1051.91V383H1045.92ZM1072.75 383.484C1070.49 383.484 1068.37 383.073 1066.41 382.251C1064.47 381.43 1062.77 380.3 1061.3 378.861C1059.86 377.394 1058.73 375.691 1057.91 373.754C1057.09 371.787 1056.68 369.688 1056.68 367.457C1056.68 365.227 1057.07 363.157 1057.87 361.249C1058.69 359.312 1059.82 357.624 1061.26 356.186C1062.72 354.718 1064.43 353.588 1066.36 352.796C1068.3 351.974 1070.4 351.563 1072.66 351.563C1074.95 351.563 1077.06 351.974 1079 352.796C1080.94 353.588 1082.62 354.718 1084.06 356.186C1085.53 357.624 1086.68 359.312 1087.5 361.249C1088.32 363.187 1088.73 365.271 1088.73 367.501C1088.73 369.732 1088.32 371.816 1087.5 373.754C1086.68 375.691 1085.53 377.394 1084.06 378.861C1082.62 380.3 1080.94 381.43 1079 382.251C1077.09 383.073 1075.01 383.484 1072.75 383.484ZM1072.66 377.893C1074.66 377.893 1076.39 377.452 1077.86 376.572C1079.32 375.691 1080.47 374.473 1081.29 372.917C1082.14 371.361 1082.57 369.542 1082.57 367.457C1082.57 365.931 1082.33 364.537 1081.86 363.275C1081.39 362.012 1080.72 360.926 1079.84 360.016C1078.96 359.077 1077.91 358.358 1076.71 357.859C1075.51 357.36 1074.16 357.11 1072.66 357.11C1070.72 357.11 1069.01 357.551 1067.51 358.431C1066.04 359.283 1064.88 360.486 1064.03 362.042C1063.21 363.598 1062.8 365.403 1062.8 367.457C1062.8 369.013 1063.03 370.437 1063.5 371.728C1064 373.02 1064.68 374.121 1065.53 375.031C1066.41 375.941 1067.45 376.645 1068.65 377.144C1069.89 377.643 1071.22 377.893 1072.66 377.893Z" fill="#6B57CE"/>
<path d="M7.24823 21L1.18901 2.31739H4.75013L9.2414 16.6948H8.0455L12.457 2.31739H15.1412L19.5527 16.6948H18.3302L22.8481 2.31739H26.4092L20.3234 21H17.6393L13.2012 6.6492H14.3705L9.95894 21H7.24823ZM28.8857 21V2.31739H32.5V21H28.8857ZM31.5433 21V17.8109H41.8812V21H31.5433ZM31.5433 13.0008V9.918H40.951V13.0008H31.5433ZM31.5433 5.50646V2.31739H41.7483V5.50646H31.5433ZM44.8726 21V2.31739H48.4868V21H44.8726ZM47.5301 21V17.7844H57.0442V21H47.5301ZM67.0575 21.2658C65.6933 21.2658 64.4266 21.0266 63.2572 20.5482C62.0879 20.0521 61.0603 19.37 60.1745 18.5019C59.3063 17.616 58.6331 16.5885 58.1547 15.4191C57.6941 14.2498 57.4638 12.9919 57.4638 11.6454C57.4638 10.2989 57.6941 9.041 58.1547 7.87168C58.6331 6.70236 59.3063 5.68363 60.1745 4.81549C61.0603 3.94736 62.0791 3.26525 63.2307 2.76917C64.4 2.2731 65.6756 2.02506 67.0575 2.02506C68.5458 2.02506 69.8568 2.2731 70.9907 2.76917C72.1246 3.24753 73.1256 3.91192 73.9938 4.76234L71.5488 7.20729C71.035 6.64035 70.4061 6.19742 69.6619 5.87851C68.9178 5.55961 68.0497 5.40015 67.0575 5.40015C66.1894 5.40015 65.3921 5.55075 64.6657 5.85194C63.9571 6.13541 63.337 6.56062 62.8055 7.12756C62.2739 7.67679 61.8665 8.34118 61.583 9.12073C61.2995 9.88256 61.1578 10.7241 61.1578 11.6454C61.1578 12.5844 61.2995 13.4348 61.583 14.1967C61.8665 14.9585 62.2739 15.6229 62.8055 16.1898C63.337 16.7391 63.9571 17.1643 64.6657 17.4655C65.3921 17.7666 66.1894 17.9172 67.0575 17.9172C68.1028 17.9172 68.9976 17.7578 69.7417 17.4389C70.5035 17.12 71.1413 16.6682 71.6551 16.0835L74.1001 18.5285C73.2319 19.3966 72.2221 20.0699 71.0704 20.5482C69.9188 21.0266 68.5812 21.2658 67.0575 21.2658ZM84.6034 21.2923C83.2392 21.2923 81.9636 21.0443 80.7765 20.5482C79.6072 20.0521 78.5796 19.37 77.6938 18.5019C76.8256 17.616 76.1435 16.5885 75.6475 15.4191C75.1514 14.2321 74.9033 12.9653 74.9033 11.6188C74.9033 10.2723 75.1425 9.02329 75.6209 7.87168C76.117 6.70236 76.7991 5.68363 77.6672 4.81549C78.5531 3.92964 79.5806 3.24753 80.75 2.76917C81.9193 2.2731 83.1861 2.02506 84.5503 2.02506C85.9322 2.02506 87.2078 2.2731 88.3771 2.76917C89.5465 3.24753 90.5652 3.92964 91.4333 4.81549C92.3192 5.68363 93.0102 6.70236 93.5062 7.87168C94.0023 9.041 94.2503 10.2989 94.2503 11.6454C94.2503 12.9919 94.0023 14.2498 93.5062 15.4191C93.0102 16.5885 92.3192 17.616 91.4333 18.5019C90.5652 19.37 89.5465 20.0521 88.3771 20.5482C87.2255 21.0443 85.9676 21.2923 84.6034 21.2923ZM84.5503 17.9172C85.755 17.9172 86.8003 17.6515 87.6862 17.12C88.572 16.5885 89.263 15.8532 89.7591 14.9142C90.2729 13.9752 90.5298 12.8767 90.5298 11.6188C90.5298 10.6975 90.388 9.85599 90.1046 9.09415C89.8211 8.33232 89.4136 7.67679 88.8821 7.12756C88.3506 6.56062 87.7216 6.12655 86.9952 5.82536C86.2688 5.52417 85.4538 5.37358 84.5503 5.37358C83.3809 5.37358 82.3445 5.63933 81.4409 6.17084C80.5551 6.68464 79.8553 7.41104 79.3415 8.35004C78.8454 9.28904 78.5973 10.3786 78.5973 11.6188C78.5973 12.5578 78.7391 13.4171 79.0226 14.1967C79.3237 14.9762 79.7312 15.6406 80.245 16.1898C80.7765 16.7391 81.4055 17.1643 82.1319 17.4655C82.876 17.7666 83.6821 17.9172 84.5503 17.9172ZM97.1153 21V2.31739H99.6666L107.241 14.4358H105.779L113.326 2.31739H115.878V21H112.29V8.50949L112.981 8.7221L107.719 17.1731H105.274L100.012 8.7221L100.73 8.50949V21H97.1153ZM119.694 21V2.31739H123.308V21H119.694ZM122.352 21V17.8109H132.69V21H122.352ZM122.352 13.0008V9.918H131.759V13.0008H122.352ZM122.352 5.50646V2.31739H132.557V5.50646H122.352ZM145.08 21V2.71602H148.721V21H145.08ZM139.128 5.53303V2.31739H154.674V5.53303H139.128ZM164.797 21.2923C163.433 21.2923 162.157 21.0443 160.97 20.5482C159.801 20.0521 158.773 19.37 157.888 18.5019C157.019 17.616 156.337 16.5885 155.841 15.4191C155.345 14.2321 155.097 12.9653 155.097 11.6188C155.097 10.2723 155.336 9.02329 155.815 7.87168C156.311 6.70236 156.993 5.68363 157.861 4.81549C158.747 3.92964 159.774 3.24753 160.944 2.76917C162.113 2.2731 163.38 2.02506 164.744 2.02506C166.126 2.02506 167.402 2.2731 168.571 2.76917C169.74 3.24753 170.759 3.92964 171.627 4.81549C172.513 5.68363 173.204 6.70236 173.7 7.87168C174.196 9.041 174.444 10.2989 174.444 11.6454C174.444 12.9919 174.196 14.2498 173.7 15.4191C173.204 16.5885 172.513 17.616 171.627 18.5019C170.759 19.37 169.74 20.0521 168.571 20.5482C167.419 21.0443 166.161 21.2923 164.797 21.2923ZM164.744 17.9172C165.949 17.9172 166.994 17.6515 167.88 17.12C168.766 16.5885 169.457 15.8532 169.953 14.9142C170.467 13.9752 170.724 12.8767 170.724 11.6188C170.724 10.6975 170.582 9.85599 170.298 9.09415C170.015 8.33232 169.607 7.67679 169.076 7.12756C168.544 6.56062 167.915 6.12655 167.189 5.82536C166.463 5.52417 165.648 5.37358 164.744 5.37358C163.575 5.37358 162.538 5.63933 161.635 6.17084C160.749 6.68464 160.049 7.41104 159.535 8.35004C159.039 9.28904 158.791 10.3786 158.791 11.6188C158.791 12.5578 158.933 13.4171 159.216 14.1967C159.518 14.9762 159.925 15.6406 160.439 16.1898C160.97 16.7391 161.599 17.1643 162.326 17.4655C163.07 17.7666 163.876 17.9172 164.744 17.9172Z" fill="#6B57CE"/>
<path d="M85.7711 201H136.771L111.571 132.9H110.971L85.7711 201ZM95.3711 75H127.471L220.471 297H175.171L151.471 239.7H71.9711L48.2711 297H2.97109L95.3711 75ZM262.541 212.4C262.541 220.2 263.841 227.4 266.441 234C269.241 240.4 272.841 246 277.241 250.8C281.841 255.4 287.041 259.1 292.841 261.9C298.841 264.5 305.141 265.8 311.741 265.8C319.141 265.8 325.841 264.3 331.841 261.3C338.041 258.1 343.241 254.1 347.441 249.3C351.841 244.3 355.141 238.7 357.341 232.5C359.741 226.3 360.941 220 360.941 213.6C360.941 206.8 359.641 200.3 357.041 194.1C354.641 187.7 351.241 182.1 346.841 177.3C342.441 172.5 337.241 168.7 331.241 165.9C325.241 162.9 318.741 161.4 311.741 161.4C304.341 161.4 297.541 163 291.341 166.2C285.341 169.2 280.141 173.2 275.741 178.2C271.541 183 268.241 188.5 265.841 194.7C263.641 200.7 262.541 206.6 262.541 212.4ZM397.841 297H361.241V276.6H360.641C358.841 279.6 356.341 282.7 353.141 285.9C349.941 288.9 346.141 291.6 341.741 294C337.341 296.4 332.241 298.4 326.441 300C320.841 301.6 314.541 302.4 307.541 302.4C296.941 302.4 286.541 300.3 276.341 296.1C266.141 291.9 257.041 286 249.041 278.4C241.241 270.6 234.841 261.3 229.841 250.5C225.041 239.5 222.641 227.3 222.641 213.9C222.641 199.9 225.141 187.4 230.141 176.4C235.341 165.4 241.941 156.1 249.941 148.5C258.141 140.7 267.241 134.8 277.241 130.8C287.441 126.8 297.541 124.8 307.541 124.8C319.741 124.8 329.741 126.7 337.541 130.5C345.341 134.1 352.141 139 357.941 145.2V75H397.841V297ZM418.888 130.5H455.488V145.2H456.088C457.888 142.6 459.788 140.1 461.788 137.7C463.788 135.1 466.088 132.9 468.688 131.1C471.488 129.1 474.688 127.6 478.288 126.6C482.088 125.4 486.588 124.8 491.788 124.8H495.088V163.5C486.088 163.9 479.088 165.8 474.088 169.2C469.088 172.4 465.488 176.1 463.288 180.3C461.088 184.5 459.788 188.8 459.388 193.2C458.988 197.6 458.788 201 458.788 203.4V297H418.888V130.5ZM501.482 75H541.382V111.6H501.482V75ZM501.482 130.5H541.382V297H501.482V130.5ZM693.252 213.3C693.252 204.7 691.852 197.2 689.052 190.8C686.252 184.2 682.552 178.8 677.952 174.6C673.352 170.2 668.152 166.9 662.352 164.7C656.552 162.5 650.652 161.4 644.652 161.4C636.452 161.4 629.252 163 623.052 166.2C616.852 169.4 611.652 173.6 607.452 178.8C603.452 183.8 600.352 189.5 598.152 195.9C596.152 202.1 595.152 208.3 595.152 214.5C595.152 221.5 596.352 228.2 598.752 234.6C601.352 240.8 604.852 246.2 609.252 250.8C613.652 255.4 618.852 259.1 624.852 261.9C630.852 264.5 637.452 265.8 644.652 265.8C651.452 265.8 657.852 264.5 663.852 261.9C669.852 259.3 674.952 255.7 679.152 251.1C683.552 246.5 686.952 241 689.352 234.6C691.952 228.2 693.252 221.1 693.252 213.3ZM731.052 297H694.452V276.3C691.252 280.1 687.352 283.6 682.752 286.8C678.352 290 673.552 292.8 668.352 295.2C663.352 297.4 658.052 299.1 652.452 300.3C646.852 301.7 641.452 302.4 636.252 302.4C625.452 302.4 615.152 300.4 605.352 296.4C595.752 292.2 587.152 286.2 579.552 278.4C572.152 270.6 566.252 261.2 561.852 250.2C557.452 239 555.252 226.5 555.252 212.7C555.252 199.9 557.452 188.2 561.852 177.6C566.252 166.8 572.152 157.5 579.552 149.7C587.152 141.9 595.952 135.8 605.952 131.4C616.152 127 627.052 124.8 638.652 124.8C647.052 124.8 654.552 126.1 661.152 128.7C667.952 131.3 673.652 134.2 678.252 137.4C683.052 140.4 686.752 143.4 689.352 146.4C691.952 149.2 693.452 150.9 693.852 151.5H694.452V130.5H731.052V297ZM750.899 130.5H787.799V144.9C789.399 143.3 791.499 141.4 794.099 139.2C796.699 136.8 799.799 134.6 803.399 132.6C807.199 130.4 811.499 128.6 816.299 127.2C821.299 125.6 826.999 124.8 833.399 124.8C836.999 124.8 840.999 125.2 845.399 126C849.799 126.8 854.199 128.2 858.599 130.2C863.199 132 867.599 134.4 871.799 137.4C876.199 140.2 880.099 143.7 883.499 147.9C887.299 152.5 890.199 157.6 892.199 163.2C894.399 168.6 895.899 174 896.699 179.4C897.699 184.8 898.299 190 898.499 195C898.699 199.8 898.799 203.8 898.799 207V297H858.899V214.8C858.899 211.4 858.699 206.7 858.299 200.7C857.899 194.7 856.599 188.8 854.399 183C852.399 177.2 849.099 172.2 844.499 168C840.099 163.6 833.699 161.4 825.299 161.4C821.699 161.4 817.099 162.5 811.499 164.7C806.099 166.7 801.599 170.5 797.999 176.1C796.199 178.7 794.799 181.7 793.799 185.1C792.799 188.3 792.099 191.8 791.699 195.6C791.299 199.2 790.999 202.9 790.799 206.7C790.799 210.5 790.799 214.2 790.799 217.8V297H750.899V130.5ZM1050.18 213.3C1050.18 204.7 1048.78 197.2 1045.98 190.8C1043.18 184.2 1039.48 178.8 1034.88 174.6C1030.28 170.2 1025.08 166.9 1019.28 164.7C1013.48 162.5 1007.58 161.4 1001.58 161.4C993.382 161.4 986.182 163 979.982 166.2C973.782 169.4 968.582 173.6 964.382 178.8C960.382 183.8 957.282 189.5 955.082 195.9C953.082 202.1 952.082 208.3 952.082 214.5C952.082 221.5 953.282 228.2 955.682 234.6C958.282 240.8 961.782 246.2 966.182 250.8C970.582 255.4 975.782 259.1 981.782 261.9C987.782 264.5 994.382 265.8 1001.58 265.8C1008.38 265.8 1014.78 264.5 1020.78 261.9C1026.78 259.3 1031.88 255.7 1036.08 251.1C1040.48 246.5 1043.88 241 1046.28 234.6C1048.88 228.2 1050.18 221.1 1050.18 213.3ZM1087.98 297H1051.38V276.3C1048.18 280.1 1044.28 283.6 1039.68 286.8C1035.28 290 1030.48 292.8 1025.28 295.2C1020.28 297.4 1014.98 299.1 1009.38 300.3C1003.78 301.7 998.382 302.4 993.182 302.4C982.382 302.4 972.082 300.4 962.282 296.4C952.682 292.2 944.082 286.2 936.482 278.4C929.082 270.6 923.182 261.2 918.782 250.2C914.382 239 912.182 226.5 912.182 212.7C912.182 199.9 914.382 188.2 918.782 177.6C923.182 166.8 929.082 157.5 936.482 149.7C944.082 141.9 952.882 135.8 962.882 131.4C973.082 127 983.982 124.8 995.582 124.8C1003.98 124.8 1011.48 126.1 1018.08 128.7C1024.88 131.3 1030.58 134.2 1035.18 137.4C1039.98 140.4 1043.68 143.4 1046.28 146.4C1048.88 149.2 1050.38 150.9 1050.78 151.5H1051.38V130.5H1087.98V297Z" fill="url(#paint0_linear_5938_242)"/>
<rect x="490" y="41" width="62" height="76" fill="#F5FFF8"/>
<path d="M556.501 24.7401C548.166 20.5727 540.497 21.0063 534.259 23.4104C529.008 25.4343 524.794 28.8414 521.997 32.0181C519.199 28.8414 514.985 25.4343 509.734 23.4104C503.496 21.0063 495.827 20.5727 487.492 24.7401C476.68 30.1459 472.602 39.6975 473.274 49.7756C473.938 59.7467 479.225 70.2396 487.053 78.0676C494.378 85.3927 508.483 98.6534 517.301 105.771C520.048 107.988 523.923 108.096 526.76 105.939C536.397 98.6106 549.503 85.5044 556.893 78.1145L556.94 78.0676C564.768 70.2396 570.055 59.7467 570.719 49.7756C571.391 39.6975 567.313 30.1459 556.501 24.7401Z" fill="#41AE91"/>
<path d="M523.347 35.6998C525.722 32.5333 529.98 28.677 535.474 26.56C540.909 24.4649 547.583 24.0547 554.992 27.7591C564.431 32.4782 567.946 40.6455 567.353 49.5514C566.751 58.5651 561.913 68.3222 554.554 75.6814C547.114 83.1219 534.152 96.0782 524.718 103.253C523.144 104.45 520.986 104.408 519.421 103.145C510.738 96.1359 496.729 82.9704 489.44 75.6814C482.081 68.3222 477.243 58.5651 476.642 49.5514C476.048 40.6455 479.564 32.4782 489.002 27.7591C496.411 24.0547 503.085 24.4649 508.521 26.56C514.014 28.677 518.272 32.5333 520.647 35.6998L521.997 37.4998L523.347 35.6998Z" fill="#41AE91"/>
<path d="M548.978 25.5677C543.958 24.4141 539.393 25.0486 535.472 26.5597C529.979 28.6768 525.721 32.5331 523.346 35.6995L521.996 37.4995V44.9778C525.806 36.9227 534.649 26.4649 548.978 25.5677Z" fill="#41AE91"/>
<path d="M504.223 25.3432C499.704 24.5168 494.56 24.9802 489.002 27.7592C479.564 32.4783 476.048 40.6455 476.642 49.5515C477.243 58.5651 482.081 68.3222 489.44 75.6817C496.729 82.9704 510.738 96.1359 519.421 103.145C520.986 104.408 523.144 104.45 524.718 103.253C525.46 102.688 526.224 102.088 527.005 101.458C517.497 94.2135 504.89 83.5728 497.897 77.322C481.168 62.369 475.591 37.4476 497.897 27.4791C500.057 26.5136 502.169 25.8146 504.223 25.3432Z" fill="#49A49C"/>
<path d="M539.167 62.478C543.744 65.1207 551.067 61.0062 555.523 53.2882C559.979 45.5701 559.881 37.1711 555.303 34.5284C550.726 31.8857 543.403 36.0001 538.947 43.7182C534.491 51.4363 534.589 59.8353 539.167 62.478Z" fill="#49A49C"/>
<defs>
<linearGradient id="paint0_linear_5938_242" x1="-595" y1="223" x2="1698" y2="223" gradientUnits="userSpaceOnUse">
<stop stop-color="#9531FF"/>
<stop offset="1" stop-color="#1CE860"/>
</linearGradient>
</defs>
</svg>
