<svg width="1094" height="425" viewBox="0 0 1094 425" fill="none" xmlns="http://www.w3.org/2000/svg">
<path d="M701.585 405.196V397.199H713.328C714.865 397.199 716.258 396.887 717.507 396.262C718.756 395.638 719.74 394.749 720.461 393.597C721.181 392.396 721.541 390.955 721.541 389.274C721.541 387.641 721.181 386.224 720.461 385.023C719.74 383.822 718.756 382.91 717.507 382.285C716.258 381.661 714.865 381.349 713.328 381.349H701.585V373.352H714.337C717.555 373.352 720.437 374 722.982 375.297C725.576 376.594 727.617 378.443 729.106 380.844C730.595 383.198 731.34 386.008 731.34 389.274C731.34 392.54 730.595 395.374 729.106 397.775C727.617 400.129 725.576 401.954 722.982 403.251C720.437 404.548 717.555 405.196 714.337 405.196H701.585ZM694.38 424V373.352H704.178V424H694.38ZM762.479 424.793C758.78 424.793 755.322 424.12 752.104 422.775C748.934 421.43 746.148 419.581 743.747 417.228C741.393 414.826 739.544 412.04 738.199 408.87C736.854 405.652 736.182 402.218 736.182 398.568C736.182 394.917 736.83 391.531 738.127 388.409C739.472 385.239 741.321 382.477 743.675 380.124C746.076 377.722 748.862 375.873 752.032 374.576C755.202 373.232 758.636 372.559 762.335 372.559C766.081 372.559 769.539 373.232 772.709 374.576C775.879 375.873 778.641 377.722 780.995 380.124C783.396 382.477 785.269 385.239 786.614 388.409C787.959 391.579 788.631 394.989 788.631 398.64C788.631 402.29 787.959 405.7 786.614 408.87C785.269 412.04 783.396 414.826 780.995 417.228C778.641 419.581 775.879 421.43 772.709 422.775C769.587 424.12 766.177 424.793 762.479 424.793ZM762.335 415.643C765.601 415.643 768.434 414.922 770.836 413.481C773.238 412.04 775.111 410.047 776.456 407.501C777.848 404.956 778.545 401.978 778.545 398.568C778.545 396.07 778.161 393.789 777.392 391.723C776.624 389.658 775.519 387.881 774.078 386.392C772.637 384.855 770.932 383.678 768.963 382.862C766.994 382.045 764.784 381.637 762.335 381.637C759.165 381.637 756.355 382.357 753.905 383.798C751.504 385.191 749.606 387.16 748.214 389.706C746.869 392.252 746.196 395.206 746.196 398.568C746.196 401.113 746.581 403.443 747.349 405.556C748.166 407.67 749.27 409.471 750.663 410.96C752.104 412.449 753.809 413.601 755.778 414.418C757.796 415.234 759.981 415.643 762.335 415.643ZM803.603 402.818V395.182H815.346C817.748 395.182 819.597 394.581 820.894 393.38C822.239 392.132 822.911 390.427 822.911 388.265C822.911 386.296 822.239 384.663 820.894 383.366C819.597 382.021 817.748 381.349 815.346 381.349H803.603V373.352H816.211C819.477 373.352 822.335 374 824.784 375.297C827.282 376.546 829.203 378.275 830.548 380.484C831.941 382.694 832.637 385.239 832.637 388.121C832.637 391.099 831.941 393.693 830.548 395.902C829.203 398.063 827.282 399.769 824.784 401.017C822.287 402.218 819.381 402.818 816.067 402.818H803.603ZM796.398 424V373.352H806.197V424H796.398ZM824.064 424L807.349 402.098L816.355 399.288L835.952 424H824.064ZM851.923 424V374.432H861.793V424H851.923ZM835.784 382.069V373.352H877.931V382.069H835.784ZM884.697 424V373.352H894.495V424H884.697ZM891.901 403.251V394.533H917.406V403.251H891.901ZM891.901 381.997V373.352H918.63V381.997H891.901ZM949.418 424.793C945.72 424.793 942.262 424.12 939.044 422.775C935.874 421.43 933.088 419.581 930.686 417.228C928.333 414.826 926.484 412.04 925.139 408.87C923.794 405.652 923.122 402.218 923.122 398.568C923.122 394.917 923.77 391.531 925.067 388.409C926.412 385.239 928.261 382.477 930.614 380.124C933.016 377.722 935.802 375.873 938.972 374.576C942.142 373.232 945.576 372.559 949.274 372.559C953.021 372.559 956.479 373.232 959.649 374.576C962.819 375.873 965.581 377.722 967.934 380.124C970.336 382.477 972.209 385.239 973.554 388.409C974.899 391.579 975.571 394.989 975.571 398.64C975.571 402.29 974.899 405.7 973.554 408.87C972.209 412.04 970.336 414.826 967.934 417.228C965.581 419.581 962.819 421.43 959.649 422.775C956.527 424.12 953.117 424.793 949.418 424.793ZM949.274 415.643C952.54 415.643 955.374 414.922 957.776 413.481C960.177 412.04 962.05 410.047 963.395 407.501C964.788 404.956 965.485 401.978 965.485 398.568C965.485 396.07 965.1 393.789 964.332 391.723C963.563 389.658 962.459 387.881 961.018 386.392C959.577 384.855 957.872 383.678 955.902 382.862C953.933 382.045 951.724 381.637 949.274 381.637C946.104 381.637 943.294 382.357 940.845 383.798C938.443 385.191 936.546 387.16 935.153 389.706C933.808 392.252 933.136 395.206 933.136 398.568C933.136 401.113 933.52 403.443 934.289 405.556C935.105 407.67 936.21 409.471 937.603 410.96C939.044 412.449 940.749 413.601 942.718 414.418C944.735 415.234 946.921 415.643 949.274 415.643ZM983.338 424V373.352H993.136V424H983.338ZM990.542 424V415.282H1016.33V424H990.542ZM1023.37 424V373.352H1033.17V424H1023.37ZM1067.27 424.793C1063.57 424.793 1060.11 424.12 1056.89 422.775C1053.72 421.43 1050.94 419.581 1048.54 417.228C1046.18 414.826 1044.33 412.04 1042.99 408.87C1041.64 405.652 1040.97 402.218 1040.97 398.568C1040.97 394.917 1041.62 391.531 1042.92 388.409C1044.26 385.239 1046.11 382.477 1048.46 380.124C1050.86 377.722 1053.65 375.873 1056.82 374.576C1059.99 373.232 1063.42 372.559 1067.12 372.559C1070.87 372.559 1074.33 373.232 1077.5 374.576C1080.67 375.873 1083.43 377.722 1085.78 380.124C1088.18 382.477 1090.06 385.239 1091.4 388.409C1092.75 391.579 1093.42 394.989 1093.42 398.64C1093.42 402.29 1092.75 405.7 1091.4 408.87C1090.06 412.04 1088.18 414.826 1085.78 417.228C1083.43 419.581 1080.67 421.43 1077.5 422.775C1074.38 424.12 1070.97 424.793 1067.27 424.793ZM1067.12 415.643C1070.39 415.643 1073.22 414.922 1075.62 413.481C1078.03 412.04 1079.9 410.047 1081.24 407.501C1082.64 404.956 1083.33 401.978 1083.33 398.568C1083.33 396.07 1082.95 393.789 1082.18 391.723C1081.41 389.658 1080.31 387.881 1078.87 386.392C1077.43 384.855 1075.72 383.678 1073.75 382.862C1071.78 382.045 1069.57 381.637 1067.12 381.637C1063.95 381.637 1061.14 382.357 1058.69 383.798C1056.29 385.191 1054.39 387.16 1053 389.706C1051.66 392.252 1050.98 395.206 1050.98 398.568C1050.98 401.113 1051.37 403.443 1052.14 405.556C1052.95 407.67 1054.06 409.471 1055.45 410.96C1056.89 412.449 1058.6 413.601 1060.57 414.418C1062.58 415.234 1064.77 415.643 1067.12 415.643Z" fill="#6B57CE"/>
<path d="M12.5295 41.509L0.0016835 2.88169H7.36451L16.6505 32.6077H14.1779L23.299 2.88169H28.8486L37.9697 32.6077H35.4421L44.783 2.88169H52.1458L39.5631 41.509H34.0135L24.8375 11.838H27.2551L18.134 41.509H12.5295ZM57.2662 41.509V2.88169H64.7389V41.509H57.2662ZM62.7608 41.509V34.9155H84.135V41.509H62.7608ZM62.7608 24.9702V18.5964H82.2118V24.9702H62.7608ZM62.7608 9.47526V2.88169H83.8602V9.47526H62.7608ZM90.3199 41.509V2.88169H97.7926V41.509H90.3199ZM95.8145 41.509V34.8605H115.485V41.509H95.8145ZM136.189 42.0585C133.368 42.0585 130.749 41.564 128.331 40.5749C125.914 39.5493 123.789 38.139 121.957 36.3441C120.163 34.5125 118.771 32.3879 117.782 29.9703C116.829 27.5526 116.353 24.9518 116.353 22.1679C116.353 19.3839 116.829 16.7831 117.782 14.3655C118.771 11.9479 120.163 9.84157 121.957 8.04666C123.789 6.25174 125.895 4.84145 128.276 3.81578C130.694 2.79011 133.331 2.27728 136.189 2.27728C139.266 2.27728 141.976 2.79011 144.321 3.81578C146.665 4.80482 148.735 6.17848 150.53 7.93676L145.475 12.9918C144.412 11.8196 143.112 10.9039 141.573 10.2445C140.035 9.58516 138.24 9.25548 136.189 9.25548C134.394 9.25548 132.745 9.56684 131.243 10.1896C129.778 10.7757 128.496 11.6548 127.397 12.827C126.298 13.9626 125.456 15.3362 124.87 16.948C124.283 18.5231 123.99 20.2631 123.99 22.1679C123.99 24.1093 124.283 25.8676 124.87 27.4427C125.456 29.0179 126.298 30.3915 127.397 31.5637C128.496 32.6993 129.778 33.5784 131.243 34.2012C132.745 34.8239 134.394 35.1352 136.189 35.1352C138.35 35.1352 140.2 34.8056 141.738 34.1462C143.313 33.4869 144.632 32.5528 145.694 31.3439L150.749 36.399C148.954 38.1939 146.866 39.5859 144.485 40.5749C142.104 41.564 139.339 42.0585 136.189 42.0585ZM172.466 42.1134C169.645 42.1134 167.008 41.6006 164.553 40.5749C162.136 39.5493 160.011 38.139 158.18 36.3441C156.385 34.5125 154.974 32.3879 153.949 29.9703C152.923 27.516 152.41 24.8969 152.41 22.1129C152.41 19.329 152.905 16.7465 153.894 14.3655C154.919 11.9479 156.33 9.84157 158.125 8.04666C159.956 6.21511 162.081 4.80482 164.498 3.81578C166.916 2.79011 169.535 2.27728 172.356 2.27728C175.213 2.27728 177.85 2.79011 180.268 3.81578C182.686 4.80482 184.792 6.21511 186.587 8.04666C188.418 9.84157 189.847 11.9479 190.873 14.3655C191.898 16.7831 192.411 19.3839 192.411 22.1679C192.411 24.9518 191.898 27.5526 190.873 29.9703C189.847 32.3879 188.418 34.5125 186.587 36.3441C184.792 38.139 182.686 39.5493 180.268 40.5749C177.887 41.6006 175.286 42.1134 172.466 42.1134ZM172.356 35.1352C174.847 35.1352 177.008 34.5858 178.839 33.4869C180.671 32.3879 182.1 30.8677 183.125 28.9263C184.188 26.9849 184.719 24.7137 184.719 22.1129C184.719 20.2081 184.426 18.4682 183.84 16.893C183.253 15.3179 182.411 13.9626 181.312 12.827C180.213 11.6548 178.913 10.7573 177.411 10.1346C175.909 9.51189 174.224 9.20053 172.356 9.20053C169.938 9.20053 167.795 9.75 165.927 10.8489C164.095 11.9112 162.649 13.4131 161.586 15.3545C160.561 17.296 160.048 19.5488 160.048 22.1129C160.048 24.0544 160.341 25.831 160.927 27.4427C161.55 29.0545 162.392 30.4282 163.454 31.5637C164.553 32.6993 165.854 33.5784 167.356 34.2012C168.894 34.8239 170.561 35.1352 172.356 35.1352ZM198.335 41.509V2.88169H203.61L219.269 27.9373H216.247L231.852 2.88169H237.127V41.509H229.709V15.6842L231.138 16.1238L220.258 33.5967H215.203L204.324 16.1238L205.807 15.6842V41.509H198.335ZM245.018 41.509V2.88169H252.49V41.509H245.018ZM250.512 41.509V34.9155H271.886V41.509H250.512ZM250.512 24.9702V18.5964H269.963V24.9702H250.512ZM250.512 9.47526V2.88169H271.612V9.47526H250.512ZM297.505 41.509V3.70589H305.033V41.509H297.505ZM285.197 9.53021V2.88169H317.341V9.53021H285.197ZM338.271 42.1134C335.45 42.1134 332.813 41.6006 330.359 40.5749C327.941 39.5493 325.816 38.139 323.985 36.3441C322.19 34.5125 320.78 32.3879 319.754 29.9703C318.728 27.516 318.215 24.8969 318.215 22.1129C318.215 19.329 318.71 16.7465 319.699 14.3655C320.725 11.9479 322.135 9.84157 323.93 8.04666C325.761 6.21511 327.886 4.80482 330.304 3.81578C332.721 2.79011 335.34 2.27728 338.161 2.27728C341.018 2.27728 343.656 2.79011 346.073 3.81578C348.491 4.80482 350.597 6.21511 352.392 8.04666C354.224 9.84157 355.652 11.9479 356.678 14.3655C357.704 16.7831 358.216 19.3839 358.216 22.1679C358.216 24.9518 357.704 27.5526 356.678 29.9703C355.652 32.3879 354.224 34.5125 352.392 36.3441C350.597 38.139 348.491 39.5493 346.073 40.5749C343.692 41.6006 341.091 42.1134 338.271 42.1134ZM338.161 35.1352C340.652 35.1352 342.813 34.5858 344.645 33.4869C346.476 32.3879 347.905 30.8677 348.93 28.9263C349.993 26.9849 350.524 24.7137 350.524 22.1129C350.524 20.2081 350.231 18.4682 349.645 16.893C349.059 15.3179 348.216 13.9626 347.117 12.827C346.018 11.6548 344.718 10.7573 343.216 10.1346C341.714 9.51189 340.029 9.20053 338.161 9.20053C335.743 9.20053 333.6 9.75 331.732 10.8489C329.901 11.9112 328.454 13.4131 327.391 15.3545C326.366 17.296 325.853 19.5488 325.853 22.1129C325.853 24.0544 326.146 25.831 326.732 27.4427C327.355 29.0545 328.197 30.4282 329.26 31.5637C330.359 32.6993 331.659 33.5784 333.161 34.2012C334.699 34.8239 336.366 35.1352 338.161 35.1352Z" fill="#6B57CE"/>
<path d="M88.2594 222H139.259L114.059 153.9H113.459L88.2594 222ZM97.8594 96H129.959L222.959 318H177.659L153.959 260.7H74.4594L50.7594 318H5.45938L97.8594 96ZM265.03 233.4C265.03 241.2 266.33 248.4 268.93 255C271.73 261.4 275.33 267 279.73 271.8C284.33 276.4 289.53 280.1 295.33 282.9C301.33 285.5 307.63 286.8 314.23 286.8C321.63 286.8 328.33 285.3 334.33 282.3C340.53 279.1 345.73 275.1 349.93 270.3C354.33 265.3 357.63 259.7 359.83 253.5C362.23 247.3 363.43 241 363.43 234.6C363.43 227.8 362.13 221.3 359.53 215.1C357.13 208.7 353.73 203.1 349.33 198.3C344.93 193.5 339.73 189.7 333.73 186.9C327.73 183.9 321.23 182.4 314.23 182.4C306.83 182.4 300.03 184 293.83 187.2C287.83 190.2 282.63 194.2 278.23 199.2C274.03 204 270.73 209.5 268.33 215.7C266.13 221.7 265.03 227.6 265.03 233.4ZM400.33 318H363.73V297.6H363.13C361.33 300.6 358.83 303.7 355.63 306.9C352.43 309.9 348.63 312.6 344.23 315C339.83 317.4 334.73 319.4 328.93 321C323.33 322.6 317.03 323.4 310.03 323.4C299.43 323.4 289.03 321.3 278.83 317.1C268.63 312.9 259.53 307 251.53 299.4C243.73 291.6 237.33 282.3 232.33 271.5C227.53 260.5 225.13 248.3 225.13 234.9C225.13 220.9 227.63 208.4 232.63 197.4C237.83 186.4 244.43 177.1 252.43 169.5C260.63 161.7 269.73 155.8 279.73 151.8C289.93 147.8 300.03 145.8 310.03 145.8C322.23 145.8 332.23 147.7 340.03 151.5C347.83 155.1 354.63 160 360.43 166.2V96H400.33V318ZM421.377 151.5H457.977V166.2H458.577C460.377 163.6 462.277 161.1 464.277 158.7C466.277 156.1 468.577 153.9 471.177 152.1C473.977 150.1 477.177 148.6 480.777 147.6C484.577 146.4 489.077 145.8 494.277 145.8H497.577V184.5C488.577 184.9 481.577 186.8 476.577 190.2C471.577 193.4 467.977 197.1 465.777 201.3C463.577 205.5 462.277 209.8 461.877 214.2C461.477 218.6 461.277 222 461.277 224.4V318H421.377V151.5ZM503.97 96H543.87V132.6H503.97V96ZM503.97 151.5H543.87V318H503.97V151.5ZM695.741 234.3C695.741 225.7 694.341 218.2 691.541 211.8C688.741 205.2 685.041 199.8 680.441 195.6C675.841 191.2 670.641 187.9 664.841 185.7C659.041 183.5 653.141 182.4 647.141 182.4C638.941 182.4 631.741 184 625.541 187.2C619.341 190.4 614.141 194.6 609.941 199.8C605.941 204.8 602.841 210.5 600.641 216.9C598.641 223.1 597.641 229.3 597.641 235.5C597.641 242.5 598.841 249.2 601.241 255.6C603.841 261.8 607.341 267.2 611.741 271.8C616.141 276.4 621.341 280.1 627.341 282.9C633.341 285.5 639.941 286.8 647.141 286.8C653.941 286.8 660.341 285.5 666.341 282.9C672.341 280.3 677.441 276.7 681.641 272.1C686.041 267.5 689.441 262 691.841 255.6C694.441 249.2 695.741 242.1 695.741 234.3ZM733.541 318H696.941V297.3C693.741 301.1 689.841 304.6 685.241 307.8C680.841 311 676.041 313.8 670.841 316.2C665.841 318.4 660.541 320.1 654.941 321.3C649.341 322.7 643.941 323.4 638.741 323.4C627.941 323.4 617.641 321.4 607.841 317.4C598.241 313.2 589.641 307.2 582.041 299.4C574.641 291.6 568.741 282.2 564.341 271.2C559.941 260 557.741 247.5 557.741 233.7C557.741 220.9 559.941 209.2 564.341 198.6C568.741 187.8 574.641 178.5 582.041 170.7C589.641 162.9 598.441 156.8 608.441 152.4C618.641 148 629.541 145.8 641.141 145.8C649.541 145.8 657.041 147.1 663.641 149.7C670.441 152.3 676.141 155.2 680.741 158.4C685.541 161.4 689.241 164.4 691.841 167.4C694.441 170.2 695.941 171.9 696.341 172.5H696.941V151.5H733.541V318ZM753.388 151.5H790.288V165.9C791.888 164.3 793.988 162.4 796.588 160.2C799.188 157.8 802.288 155.6 805.888 153.6C809.688 151.4 813.988 149.6 818.788 148.2C823.788 146.6 829.488 145.8 835.888 145.8C839.488 145.8 843.488 146.2 847.888 147C852.288 147.8 856.688 149.2 861.088 151.2C865.688 153 870.088 155.4 874.288 158.4C878.688 161.2 882.588 164.7 885.988 168.9C889.788 173.5 892.688 178.6 894.688 184.2C896.888 189.6 898.388 195 899.188 200.4C900.188 205.8 900.788 211 900.988 216C901.188 220.8 901.288 224.8 901.288 228V318H861.388V235.8C861.388 232.4 861.188 227.7 860.788 221.7C860.388 215.7 859.088 209.8 856.888 204C854.888 198.2 851.588 193.2 846.988 189C842.588 184.6 836.188 182.4 827.788 182.4C824.188 182.4 819.588 183.5 813.988 185.7C808.588 187.7 804.088 191.5 800.488 197.1C798.688 199.7 797.288 202.7 796.288 206.1C795.288 209.3 794.588 212.8 794.188 216.6C793.788 220.2 793.488 223.9 793.288 227.7C793.288 231.5 793.288 235.2 793.288 238.8V318H753.388V151.5ZM1052.67 234.3C1052.67 225.7 1051.27 218.2 1048.47 211.8C1045.67 205.2 1041.97 199.8 1037.37 195.6C1032.77 191.2 1027.57 187.9 1021.77 185.7C1015.97 183.5 1010.07 182.4 1004.07 182.4C995.87 182.4 988.67 184 982.47 187.2C976.27 190.4 971.07 194.6 966.87 199.8C962.87 204.8 959.77 210.5 957.57 216.9C955.57 223.1 954.57 229.3 954.57 235.5C954.57 242.5 955.77 249.2 958.17 255.6C960.77 261.8 964.27 267.2 968.67 271.8C973.07 276.4 978.27 280.1 984.27 282.9C990.27 285.5 996.87 286.8 1004.07 286.8C1010.87 286.8 1017.27 285.5 1023.27 282.9C1029.27 280.3 1034.37 276.7 1038.57 272.1C1042.97 267.5 1046.37 262 1048.77 255.6C1051.37 249.2 1052.67 242.1 1052.67 234.3ZM1090.47 318H1053.87V297.3C1050.67 301.1 1046.77 304.6 1042.17 307.8C1037.77 311 1032.97 313.8 1027.77 316.2C1022.77 318.4 1017.47 320.1 1011.87 321.3C1006.27 322.7 1000.87 323.4 995.67 323.4C984.87 323.4 974.57 321.4 964.77 317.4C955.17 313.2 946.57 307.2 938.97 299.4C931.57 291.6 925.67 282.2 921.27 271.2C916.87 260 914.67 247.5 914.67 233.7C914.67 220.9 916.87 209.2 921.27 198.6C925.67 187.8 931.57 178.5 938.97 170.7C946.57 162.9 955.37 156.8 965.37 152.4C975.57 148 986.47 145.8 998.07 145.8C1006.47 145.8 1013.97 147.1 1020.57 149.7C1027.37 152.3 1033.07 155.2 1037.67 158.4C1042.47 161.4 1046.17 164.4 1048.77 167.4C1051.37 170.2 1052.87 171.9 1053.27 172.5H1053.87V151.5H1090.47V318Z" fill="url(#paint0_linear_5997_1126)"/>
<rect x="492.488" y="62" width="62" height="76" fill="#F5FFF8"/>
<path d="M558.989 45.7401C550.655 41.5727 542.985 42.0063 536.748 44.4104C531.496 46.4343 527.282 49.8414 524.485 53.0181C521.688 49.8414 517.473 46.4343 512.222 44.4104C505.984 42.0063 498.315 41.5727 489.98 45.7401C479.168 51.1459 475.09 60.6975 475.762 70.7756C476.427 80.7467 481.713 91.2396 489.542 99.0676C496.867 106.393 510.972 119.653 519.789 126.771C522.536 128.988 526.411 129.096 529.249 126.939C538.885 119.611 551.991 106.504 559.381 99.1145L559.428 99.0676C567.256 91.2396 572.543 80.7467 573.208 70.7756C573.88 60.6975 569.801 51.1459 558.989 45.7401Z" fill="#41AE91"/>
<path d="M525.836 56.6998C528.21 53.5333 532.469 49.677 537.962 47.56C543.398 45.4649 550.072 45.0547 557.481 48.7591C566.919 53.4782 570.434 61.6455 569.841 70.5514C569.24 79.5651 564.401 89.3222 557.042 96.6814C549.602 104.122 536.641 117.078 527.206 124.253C525.633 125.45 523.475 125.408 521.909 124.145C513.226 117.136 499.217 103.97 491.929 96.6814C484.569 89.3222 479.731 79.5651 479.13 70.5514C478.536 61.6455 482.052 53.4782 491.49 48.7591C498.899 45.0547 505.573 45.4649 511.009 47.56C516.502 49.677 520.761 53.5333 523.136 56.6998L524.486 58.4998L525.836 56.6998Z" fill="#41AE91"/>
<path d="M551.466 46.5677C546.447 45.4141 541.881 46.0486 537.961 47.5597C532.468 49.6768 528.209 53.5331 525.834 56.6995L524.484 58.4995V65.9778C528.295 57.9227 537.138 47.4649 551.466 46.5677Z" fill="#41AE91"/>
<path d="M506.711 46.3432C502.193 45.5168 497.048 45.9802 491.49 48.7592C482.052 53.4783 478.536 61.6455 479.13 70.5515C479.731 79.5651 484.569 89.3222 491.929 96.6817C499.217 103.97 513.226 117.136 521.909 124.145C523.475 125.408 525.633 125.45 527.206 124.253C527.948 123.688 528.712 123.088 529.493 122.458C519.985 115.214 507.378 104.573 500.385 98.322C483.656 83.369 478.079 58.4476 500.385 48.4791C502.545 47.5136 504.657 46.8146 506.711 46.3432Z" fill="#49A49C"/>
<path d="M541.655 83.478C546.232 86.1207 553.555 82.0062 558.011 74.2882C562.467 66.5701 562.369 58.1711 557.792 55.5284C553.214 52.8857 545.892 57.0001 541.436 64.7182C536.98 72.4363 537.078 80.8353 541.655 83.478Z" fill="#49A49C"/>
<defs>
<linearGradient id="paint0_linear_5997_1126" x1="-592.512" y1="244" x2="1700.49" y2="244" gradientUnits="userSpaceOnUse">
<stop stop-color="#9531FF"/>
<stop offset="1" stop-color="#1CE860"/>
</linearGradient>
</defs>
</svg>
