<svg width="1100" height="286" viewBox="0 0 1100 286" fill="none" xmlns="http://www.w3.org/2000/svg">
<g clip-path="url(#clip0_5995_1123)">
<path d="M85.2711 179H136.271L111.071 110.9H110.471L85.2711 179ZM94.8711 53H126.971L219.971 275H174.671L150.971 217.7H71.4711L47.7711 275H2.47109L94.8711 53ZM263.541 190.4C263.541 198.2 264.841 205.4 267.441 212C270.241 218.4 273.841 224 278.241 228.8C282.841 233.4 288.041 237.1 293.841 239.9C299.841 242.5 306.141 243.8 312.741 243.8C320.141 243.8 326.841 242.3 332.841 239.3C339.041 236.1 344.241 232.1 348.441 227.3C352.841 222.3 356.141 216.7 358.341 210.5C360.741 204.3 361.941 198 361.941 191.6C361.941 184.8 360.641 178.3 358.041 172.1C355.641 165.7 352.241 160.1 347.841 155.3C343.441 150.5 338.241 146.7 332.241 143.9C326.241 140.9 319.741 139.4 312.741 139.4C305.341 139.4 298.541 141 292.341 144.2C286.341 147.2 281.141 151.2 276.741 156.2C272.541 161 269.241 166.5 266.841 172.7C264.641 178.7 263.541 184.6 263.541 190.4ZM398.841 275H362.241V254.6H361.641C359.841 257.6 357.341 260.7 354.141 263.9C350.941 266.9 347.141 269.6 342.741 272C338.341 274.4 333.241 276.4 327.441 278C321.841 279.6 315.541 280.4 308.541 280.4C297.941 280.4 287.541 278.3 277.341 274.1C267.141 269.9 258.041 264 250.041 256.4C242.241 248.6 235.841 239.3 230.841 228.5C226.041 217.5 223.641 205.3 223.641 191.9C223.641 177.9 226.141 165.4 231.141 154.4C236.341 143.4 242.941 134.1 250.941 126.5C259.141 118.7 268.241 112.8 278.241 108.8C288.441 104.8 298.541 102.8 308.541 102.8C320.741 102.8 330.741 104.7 338.541 108.5C346.341 112.1 353.141 117 358.941 123.2V53H398.841V275ZM421.388 108.5H457.988V123.2H458.588C460.388 120.6 462.288 118.1 464.288 115.7C466.288 113.1 468.588 110.9 471.188 109.1C473.988 107.1 477.188 105.6 480.788 104.6C484.588 103.4 489.088 102.8 494.288 102.8H497.588V141.5C488.588 141.9 481.588 143.8 476.588 147.2C471.588 150.4 467.988 154.1 465.788 158.3C463.588 162.5 462.288 166.8 461.888 171.2C461.488 175.6 461.288 179 461.288 181.4V275H421.388V108.5ZM505.482 53H545.382V89.6H505.482V53ZM505.482 108.5H545.382V275H505.482V108.5ZM698.752 191.3C698.752 182.7 697.352 175.2 694.552 168.8C691.752 162.2 688.052 156.8 683.452 152.6C678.852 148.2 673.652 144.9 667.852 142.7C662.052 140.5 656.152 139.4 650.152 139.4C641.952 139.4 634.752 141 628.552 144.2C622.352 147.4 617.152 151.6 612.952 156.8C608.952 161.8 605.852 167.5 603.652 173.9C601.652 180.1 600.652 186.3 600.652 192.5C600.652 199.5 601.852 206.2 604.252 212.6C606.852 218.8 610.352 224.2 614.752 228.8C619.152 233.4 624.352 237.1 630.352 239.9C636.352 242.5 642.952 243.8 650.152 243.8C656.952 243.8 663.352 242.5 669.352 239.9C675.352 237.3 680.452 233.7 684.652 229.1C689.052 224.5 692.452 219 694.852 212.6C697.452 206.2 698.752 199.1 698.752 191.3ZM736.552 275H699.952V254.3C696.752 258.1 692.852 261.6 688.252 264.8C683.852 268 679.052 270.8 673.852 273.2C668.852 275.4 663.552 277.1 657.952 278.3C652.352 279.7 646.952 280.4 641.752 280.4C630.952 280.4 620.652 278.4 610.852 274.4C601.252 270.2 592.652 264.2 585.052 256.4C577.652 248.6 571.752 239.2 567.352 228.2C562.952 217 560.752 204.5 560.752 190.7C560.752 177.9 562.952 166.2 567.352 155.6C571.752 144.8 577.652 135.5 585.052 127.7C592.652 119.9 601.452 113.8 611.452 109.4C621.652 105 632.552 102.8 644.152 102.8C652.552 102.8 660.052 104.1 666.652 106.7C673.452 109.3 679.152 112.2 683.752 115.4C688.552 118.4 692.252 121.4 694.852 124.4C697.452 127.2 698.952 128.9 699.352 129.5H699.952V108.5H736.552V275ZM757.899 108.5H794.799V122.9C796.399 121.3 798.499 119.4 801.099 117.2C803.699 114.8 806.799 112.6 810.399 110.6C814.199 108.4 818.499 106.6 823.299 105.2C828.299 103.6 833.999 102.8 840.399 102.8C843.999 102.8 847.999 103.2 852.399 104C856.799 104.8 861.199 106.2 865.599 108.2C870.199 110 874.599 112.4 878.799 115.4C883.199 118.2 887.099 121.7 890.499 125.9C894.299 130.5 897.199 135.6 899.199 141.2C901.399 146.6 902.899 152 903.699 157.4C904.699 162.8 905.299 168 905.499 173C905.699 177.8 905.799 181.8 905.799 185V275H865.899V192.8C865.899 189.4 865.699 184.7 865.299 178.7C864.899 172.7 863.599 166.8 861.399 161C859.399 155.2 856.099 150.2 851.499 146C847.099 141.6 840.699 139.4 832.299 139.4C828.699 139.4 824.099 140.5 818.499 142.7C813.099 144.7 808.599 148.5 804.999 154.1C803.199 156.7 801.799 159.7 800.799 163.1C799.799 166.3 799.099 169.8 798.699 173.6C798.299 177.2 797.999 180.9 797.799 184.7C797.799 188.5 797.799 192.2 797.799 195.8V275H757.899V108.5ZM1058.68 191.3C1058.68 182.7 1057.28 175.2 1054.48 168.8C1051.68 162.2 1047.98 156.8 1043.38 152.6C1038.78 148.2 1033.58 144.9 1027.78 142.7C1021.98 140.5 1016.08 139.4 1010.08 139.4C1001.88 139.4 994.682 141 988.482 144.2C982.282 147.4 977.082 151.6 972.882 156.8C968.882 161.8 965.782 167.5 963.582 173.9C961.582 180.1 960.582 186.3 960.582 192.5C960.582 199.5 961.782 206.2 964.182 212.6C966.782 218.8 970.282 224.2 974.682 228.8C979.082 233.4 984.282 237.1 990.282 239.9C996.282 242.5 1002.88 243.8 1010.08 243.8C1016.88 243.8 1023.28 242.5 1029.28 239.9C1035.28 237.3 1040.38 233.7 1044.58 229.1C1048.98 224.5 1052.38 219 1054.78 212.6C1057.38 206.2 1058.68 199.1 1058.68 191.3ZM1096.48 275H1059.88V254.3C1056.68 258.1 1052.78 261.6 1048.18 264.8C1043.78 268 1038.98 270.8 1033.78 273.2C1028.78 275.4 1023.48 277.1 1017.88 278.3C1012.28 279.7 1006.88 280.4 1001.68 280.4C990.882 280.4 980.582 278.4 970.782 274.4C961.182 270.2 952.582 264.2 944.982 256.4C937.582 248.6 931.682 239.2 927.282 228.2C922.882 217 920.682 204.5 920.682 190.7C920.682 177.9 922.882 166.2 927.282 155.6C931.682 144.8 937.582 135.5 944.982 127.7C952.582 119.9 961.382 113.8 971.382 109.4C981.582 105 992.482 102.8 1004.08 102.8C1012.48 102.8 1019.98 104.1 1026.58 106.7C1033.38 109.3 1039.08 112.2 1043.68 115.4C1048.48 118.4 1052.18 121.4 1054.78 124.4C1057.38 127.2 1058.88 128.9 1059.28 129.5H1059.88V108.5H1096.48V275Z" fill="url(#paint0_linear_5995_1123)"/>
<rect x="494" y="19" width="62" height="76" fill="#F5FFF8"/>
<path d="M560.501 2.74031C552.166 -1.42704 544.497 -0.99349 538.259 1.41066C533.008 3.43451 528.794 6.84161 525.997 10.0184C523.199 6.84161 518.985 3.43451 513.734 1.41066C507.496 -0.99349 499.827 -1.42704 491.492 2.74031C480.68 8.14615 476.602 17.6977 477.274 27.7759C477.938 37.747 483.225 48.2399 491.053 56.0678C498.378 63.3929 512.483 76.6537 521.301 83.7709C524.048 85.9879 527.923 86.0966 530.76 83.9393C540.397 76.6108 553.503 63.5047 560.893 56.1148L560.94 56.0678C568.768 48.2399 574.055 37.747 574.719 27.7759C575.391 17.6977 571.313 8.14615 560.501 2.74031Z" fill="#41AE91"/>
<path d="M527.347 13.6998C529.722 10.5333 533.98 6.67704 539.474 4.55997C544.909 2.46494 551.583 2.05474 558.992 5.75914C568.431 10.4782 571.946 18.6455 571.353 27.5514C570.751 36.5651 565.913 46.3222 558.554 53.6814C551.114 61.1219 538.152 74.0782 528.718 81.2528C527.144 82.4495 524.986 82.408 523.421 81.1448C514.738 74.1359 500.729 60.9704 493.44 53.6814C486.081 46.3222 481.243 36.5651 480.642 27.5514C480.048 18.6455 483.564 10.4782 493.002 5.75914C500.411 2.05474 507.085 2.46494 512.521 4.55997C518.014 6.67704 522.272 10.5333 524.647 13.6998L525.997 15.4998L527.347 13.6998Z" fill="#41AE91"/>
<path d="M552.978 3.56748C547.958 2.41381 543.393 3.04838 539.472 4.5595C533.979 6.67657 529.721 10.5329 527.346 13.6993L525.996 15.4993V22.9775C529.806 14.9224 538.649 4.46463 552.978 3.56748Z" fill="#41AE91"/>
<path d="M508.223 3.3432C503.704 2.51676 498.56 2.98015 493.002 5.75916C483.564 10.4783 480.048 18.6455 480.642 27.5515C481.243 36.5651 486.081 46.3222 493.44 53.6817C500.729 60.9704 514.738 74.1359 523.421 81.1448C524.986 82.408 527.144 82.4495 528.718 81.2528C529.46 80.6885 530.224 80.0884 531.005 79.4579C521.497 72.2135 508.89 61.5728 501.897 55.322C485.168 40.369 479.591 15.4476 501.897 5.47907C504.057 4.51365 506.169 3.81455 508.223 3.3432Z" fill="#4D9CA1"/>
<path d="M543.167 40.4778C547.744 43.1204 555.067 39.006 559.523 31.2879C563.979 23.5698 563.881 15.1708 559.303 12.5281C554.726 9.88547 547.403 13.9999 542.947 21.718C538.491 29.436 538.589 37.8351 543.167 40.4778Z" fill="#4D9CA1"/>
</g>
<defs>
<linearGradient id="paint0_linear_5995_1123" x1="-591" y1="201" x2="1702" y2="201" gradientUnits="userSpaceOnUse">
<stop stop-color="#9531FF"/>
<stop offset="1" stop-color="#1CE860"/>
</linearGradient>
<clipPath id="clip0_5995_1123">
<rect width="1100" height="286" fill="white"/>
</clipPath>
</defs>
</svg>
