<svg width="50" height="36" viewBox="0 0 50 36" fill="none" xmlns="http://www.w3.org/2000/svg">
<path d="M47.8501 23.4468C46.6643 22.8539 45.5733 22.9156 44.6859 23.2576C43.9389 23.5456 43.3394 24.0302 42.9414 24.4822C42.5435 24.0302 41.9439 23.5456 41.1969 23.2576C40.3095 22.9156 39.2185 22.8539 38.0328 23.4468C36.4947 24.2159 35.9145 25.5747 36.01 27.0084C36.1046 28.4269 36.8567 29.9196 37.9704 31.0333C39.0125 32.0753 41.019 33.9618 42.2734 34.9743C42.6642 35.2897 43.2155 35.3052 43.6192 34.9983C44.9901 33.9557 46.8545 32.0912 47.9058 31.0399L47.9125 31.0333C49.0261 29.9196 49.7782 28.4269 49.8728 27.0084C49.9684 25.5747 49.3882 24.2159 47.8501 23.4468Z" fill="#41AE91"/>
<path d="M43.1339 25.006C43.4717 24.5555 44.0775 24.0069 44.859 23.7057C45.6323 23.4077 46.5818 23.3493 47.6358 23.8764C48.9785 24.5477 49.4786 25.7096 49.3942 26.9765C49.3086 28.2588 48.6203 29.6469 47.5734 30.6938C46.5149 31.7523 44.6711 33.5955 43.3289 34.6161C43.105 34.7864 42.7981 34.7805 42.5754 34.6008C41.3401 33.6037 39.3472 31.7308 38.3103 30.6938C37.2634 29.6469 36.5751 28.2588 36.4895 26.9765C36.4051 25.7096 36.9052 24.5477 38.2479 23.8764C39.3019 23.3493 40.2514 23.4077 41.0247 23.7057C41.8062 24.0069 42.4119 24.5555 42.7498 25.006L42.9418 25.262L43.1339 25.006Z" fill="#41AE91"/>
<path d="M46.7799 23.5646C46.0658 23.4005 45.4163 23.4908 44.8585 23.7058C44.0771 24.0069 43.4713 24.5556 43.1334 25.006L42.9414 25.2621V26.3259C43.4834 25.18 44.7414 23.6923 46.7799 23.5646Z" fill="#41AE91"/>
<path d="M40.4133 23.5326C39.7705 23.4151 39.0386 23.481 38.2479 23.8764C36.9052 24.5477 36.4051 25.7096 36.4895 26.9766C36.5751 28.2588 37.2634 29.6469 38.3103 30.6939C39.3472 31.7308 41.3401 33.6037 42.5754 34.6008C42.7981 34.7805 43.105 34.7864 43.3289 34.6161C43.4345 34.5359 43.5432 34.4505 43.6543 34.3609C42.3016 33.3302 40.5082 31.8165 39.5133 30.9272C37.1334 28.8 36.3401 25.2546 39.5133 23.8365C39.8206 23.6991 40.1211 23.5997 40.4133 23.5326Z" fill="#4D9CA1"/>
<path d="M47.0818 29.0558C47.8117 28.8751 48.1564 27.7309 47.8517 26.5002C47.547 25.2696 46.7082 24.4184 45.9784 24.5991C45.2486 24.7798 44.9039 25.924 45.2086 27.1546C45.5133 28.3854 46.352 29.2365 47.0818 29.0558Z" fill="#4D9CA1"/>
<path d="M1.30375 35L14.8878 1.256H20.2158L33.7518 35H26.7917L16.3278 7.304H18.7278L8.11975 35H1.30375ZM8.50375 28.712V23.24H26.6478V28.712H8.50375Z" fill="#6B57CE"/>
</svg>
